<svg width="2626" height="1329" viewBox="0 0 2626 1329" fill="none" xmlns="http://www.w3.org/2000/svg">
<rect width="2626" height="1329" fill="white"/>
<path fill-rule="evenodd" clip-rule="evenodd" d="M1330.01 595.704V567H1168V595.704H1232.58V763.512H1265.43V595.704H1330.01ZM1381.59 639.864V567H1350.12V763.512H1381.59V685.68C1381.59 658.908 1395.66 645.384 1413.6 645.384C1431.27 645.384 1442.03 655.32 1442.03 680.436V763.512H1473.49V677.676C1473.49 639.312 1454.17 619.992 1422.43 619.992C1406.7 619.992 1392.07 626.34 1382.14 639.864H1381.59ZM1541.08 597.084V567H1509.61V597.084H1541.08ZM1541.08 763.512V623.304H1509.61V763.512H1541.08ZM1650.89 619.992C1632.4 619.992 1617.77 628.824 1608.94 641.52H1608.38V623.304H1578.58V763.512H1610.04V685.68C1610.04 658.908 1624.12 645.384 1642.06 645.384C1659.72 645.384 1670.48 655.32 1670.48 680.436V763.512H1701.95V677.676C1701.95 639.312 1682.63 619.992 1650.89 619.992ZM1864.47 763.512L1799.89 687.336L1857.85 623.304H1821.14L1770.08 680.712H1769.53V567H1738.07V763.512H1769.53V695.616H1770.08L1824.73 763.512H1864.47ZM2032.52 619.992C2011.27 619.992 1997.74 629.376 1987.53 645.384C1980.36 628.824 1965.45 619.992 1946.13 619.992C1929.57 619.992 1917.15 626.616 1907.22 640.14H1906.66V623.304H1876.58V763.512H1908.04V688.44C1908.04 661.392 1918.81 645.384 1937.58 645.384C1953.86 645.384 1962.69 656.976 1962.69 676.848V763.512H1994.16V687.888C1994.16 661.116 2005.2 645.384 2023.69 645.384C2039.42 645.384 2049.08 655.32 2049.08 680.16V763.512H2080.54V677.124C2080.54 639.312 2062.33 619.992 2032.52 619.992V619.992ZM2148.13 597.084V567H2116.66V597.084H2148.13ZM2148.13 763.512V623.304H2116.66V763.512H2148.13ZM2217.09 763.512V567H2185.63V763.512H2217.09ZM2286.05 763.512V567H2254.59V763.512H2286.05Z" fill="black"/>
<path fill-rule="evenodd" clip-rule="evenodd" d="M664.5 988.955C843.692 988.955 988.955 843.692 988.955 664.5C988.955 485.309 843.692 340.046 664.5 340.046C485.309 340.046 340.046 485.309 340.046 664.5C340.046 843.692 485.309 988.955 664.5 988.955Z" fill="#FF3838"/>
<path fill-rule="evenodd" clip-rule="evenodd" d="M545.907 712.009C545.907 730.188 551.966 737.523 567.912 737.523C572.058 737.523 576.523 736.885 579.074 735.928V764.312C573.653 765.906 565.361 767.182 558.664 767.182C524.54 767.182 509.55 752.831 509.55 717.431V631.004H482.442V603.258H509.55V562.756H545.907V603.258H577.48V631.004H545.907V712.009ZM739.171 628.772C750.971 610.275 766.598 599.431 791.155 599.431C825.598 599.431 846.646 621.756 846.646 665.447V765.269H810.29V668.955C810.29 640.253 799.128 628.772 780.949 628.772C759.582 628.772 746.825 646.95 746.825 677.885V765.269H710.469V665.128C710.469 642.166 700.263 628.772 681.447 628.772C659.761 628.772 647.323 647.269 647.323 678.523V765.269H610.966V603.258H645.728V622.712H646.366C657.847 607.085 672.198 599.431 691.333 599.431C713.658 599.431 730.879 609.637 739.171 628.772Z" fill="white"/>
</svg>
